{
  "accessors": [
    {
      "bufferView": 2,
      "componentType": 5126,
      "count": 225,
      "max": [
        0.3558347523212433,
        0.9106231927871704,
        3.6610352993011475
      ],
      "min": [
        -1.5615242719650269,
        -0.9106224179267883,
        -1.678999662399292
      ],
      "type": "VEC3"
    },
    {
      "bufferView": 2,
      "byteOffset": 2700,
      "componentType": 5126,
      "count": 225,
      "max": [
        0.9999929666519165,
        0.9999294281005859,
        0.8889350891113281
      ],
      "min": [
        -0.9984030723571777,
        -0.9999294281005859,
        -0.33250561356544495
      ],
      "type": "VEC3"
    },
    {
      "bufferView": 1,
      "componentType": 5126,
      "count": 225,
      "max": [
        0.0,
        0.0
      ],
      "min": [
        0.0,
        0.0
      ],
      "type": "VEC2"
    },
    {
      "bufferView": 0,
      "componentType": 5125,
      "count": 1296,
      "type": "SCALAR"
    },
    {
      "bufferView": 2,
      "byteOffset": 5400,
      "componentType": 5126,
      "count": 241,
      "max": [
        0.5372533798217773,
        1.1096049547195435,
        3.8379290103912354
      ],
      "min": [
        -1.760202407836914,
        -1.1096042394638062,
        -1.776607871055603
      ],
      "type": "VEC3"
    },
    {
      "bufferView": 2,
      "byteOffset": 8292,
      "componentType": 5126,
      "count": 241,
      "max": [
        0.9983227252960205,
        0.9999096393585205,
        0.945631206035614
      ],
      "min": [
        -0.999993085861206,
        -0.9999096393585205,
        -0.8914039134979248
      ],
      "type": "VEC3"
    },
    {
      "bufferView": 0,
      "byteOffset": 5184,
      "componentType": 5125,
      "count": 1392,
      "type": "SCALAR"
    },
    {
      "bufferView": 2,
      "byteOffset": 11184,
      "componentType": 5126,
      "count": 273,
      "max": [
        0.5000331401824951,
        0.8325964212417603,
        3.6333160400390625
      ],
      "min": [
        -1.2185579538345337,
        -0.8325956463813782,
        -1.8865325450897217
      ],
      "type": "VEC3"
    },
    {
      "bufferView": 2,
      "byteOffset": 14460,
      "componentType": 5126,
      "count": 273,
      "max": [
        0.9999970197677612,
        0.999730110168457,
        0.9440761208534241
      ],
      "min": [
        -0.9991919994354248,
        -0.999730110168457,
        -0.2927108705043793
      ],
      "type": "VEC3"
    },
    {
      "bufferView": 1,
      "byteOffset": 1800,
      "componentType": 5126,
      "count": 273,
      "max": [
        0.0,
        0.0
      ],
      "min": [
        0.0,
        0.0
      ],
      "type": "VEC2"
    },
    {
      "bufferView": 0,
      "byteOffset": 10752,
      "componentType": 5125,
      "count": 1584,
      "type": "SCALAR"
    },
    {
      "bufferView": 2,
      "byteOffset": 17736,
      "componentType": 5126,
      "count": 289,
      "max": [
        0.7840244770050049,
        1.116518497467041,
        3.9014289379119873
      ],
      "min": [
        -1.5023152828216553,
        -1.1165176630020142,
        -1.9957399368286133
      ],
      "type": "VEC3"
    },
    {
      "bufferView": 2,
      "byteOffset": 21204,
      "componentType": 5126,
      "count": 289,
      "max": [
        0.9991919994354248,
        0.9996988773345947,
        0.9050454497337341
      ],
      "min": [
        -0.999996542930603,
        -0.9996988773345947,
        -0.9440761208534241
      ],
      "type": "VEC3"
    },
    {
      "bufferView": 0,
      "byteOffset": 17088,
      "componentType": 5125,
      "count": 1680,
      "type": "SCALAR"
    },
    {
      "bufferView": 2,
      "byteOffset": 24672,
      "componentType": 5126,
      "count": 438,
      "max": [
        1.6062893867492676,
        0.9574350118637085,
        0.5288001298904419
      ],
      "min": [
        -1.606290340423584,
        -0.44346630573272705,
        -0.6366292238235474
      ],
      "type": "VEC3"
    },
    {
      "bufferView": 2,
      "byteOffset": 29928,
      "componentType": 5126,
      "count": 438,
      "max": [
        0.9999501705169678,
        0.9613622426986694,
        0.9985825419425964
      ],
      "min": [
        -0.9999501705169678,
        -0.9990724325180054,
        -0.9796401858329773
      ],
      "type": "VEC3"
    },
    {
      "bufferView": 0,
      "byteOffset": 23808,
      "componentType": 5125,
      "count": 2604,
      "type": "SCALAR"
    },
    {
      "bufferView": 2,
      "byteOffset": 35184,
      "componentType": 5126,
      "count": 438,
      "max": [
        1.685996413230896,
        1.044663429260254,
        0.603893518447876
      ],
      "min": [
        -1.685997486114502,
        -0.5183249115943909,
        -0.7085232734680176
      ],
      "type": "VEC3"
    },
    {
      "bufferView": 2,
      "byteOffset": 40440,
      "componentType": 5126,
      "count": 438,
      "max": [
        0.9999372959136963,
        0.999753475189209,
        0.9796580672264099
      ],
      "min": [
        -0.9999372959136963,
        -0.9631709456443787,
        -0.9983426332473755
      ],
      "type": "VEC3"
    },
    {
      "bufferView": 0,
      "byteOffset": 34224,
      "componentType": 5125,
      "count": 2604,
      "type": "SCALAR"
    },
    {
      "bufferView": 2,
      "byteOffset": 45696,
      "componentType": 5126,
      "count": 122,
      "max": [
        0.29196876287460327,
        0.06953829526901245,
        -0.009721120819449425
      ],
      "min": [
        -0.29196876287460327,
        -0.15653328597545624,
        -0.21734605729579926
      ],
      "type": "VEC3"
    },
    {
      "bufferView": 2,
      "byteOffset": 47160,
      "componentType": 5126,
      "count": 122,
      "max": [
        0.7361952662467957,
        -0.2592128813266754,
        0.7419934868812561
      ],
      "min": [
        -0.7361953258514404,
        -0.9864286780357361,
        -0.9658202528953552
      ],
      "type": "VEC3"
    },
    {
      "bufferView": 1,
      "byteOffset": 3984,
      "componentType": 5126,
      "count": 122,
      "max": [
        0.8309837579727173,
        0.8994203805923462
      ],
      "min": [
        0.4480428397655487,
        0.5986652970314026
      ],
      "type": "VEC2"
    },
    {
      "bufferView": 0,
      "byteOffset": 44640,
      "componentType": 5125,
      "count": 402,
      "type": "SCALAR"
    },
    {
      "bufferView": 2,
      "byteOffset": 48624,
      "componentType": 5126,
      "count": 2118,
      "max": [
        0.6280127167701721,
        2.288457155227661,
        0.43495240807533264
      ],
      "min": [
        -0.6280127167701721,
        -0.11838845908641815,
        -1.1586053371429443
      ],
      "type": "VEC3"
    },
    {
      "bufferView": 2,
      "byteOffset": 74040,
      "componentType": 5126,
      "count": 2118,
      "max": [
        0.9988195896148682,
        0.9998720288276672,
        1.0
      ],
      "min": [
        -0.9988195896148682,
        -0.9995059370994568,
        -0.9999989867210388
      ],
      "type": "VEC3"
    },
    {
      "bufferView": 1,
      "byteOffset": 4960,
      "componentType": 5126,
      "count": 2118,
      "max": [
        0.9999999403953552,
        0.9371814131736755
      ],
      "min": [
        0.0,
        0.0
      ],
      "type": "VEC2"
    },
    {
      "bufferView": 0,
      "byteOffset": 46248,
      "componentType": 5125,
      "count": 7032,
      "type": "SCALAR"
    },
    {
      "bufferView": 2,
      "byteOffset": 99456,
      "componentType": 5126,
      "count": 2240,
      "max": [
        0.6477258205413818,
        2.3078980445861816,
        0.45167776942253113
      ],
      "min": [
        -0.6477258205413818,
        -0.17626166343688965,
        -1.1786047220230103
      ],
      "type": "VEC3"
    },
    {
      "bufferView": 2,
      "byteOffset": 126336,
      "componentType": 5126,
      "count": 2240,
      "max": [
        0.9989423751831055,
        0.9998542070388794,
        0.999998927116394
      ],
      "min": [
        -0.9989423751831055,
        -0.999845564365387,
        -0.9999949932098389
      ],
      "type": "VEC3"
    },
    {
      "bufferView": 1,
      "byteOffset": 21904,
      "componentType": 5126,
      "count": 2240,
      "max": [
        0.9999999403953552,
        0.9371814131736755
      ],
      "min": [
        0.0,
        0.0
      ],
      "type": "VEC2"
    },
    {
      "bufferView": 0,
      "byteOffset": 74376,
      "componentType": 5125,
      "count": 7434,
      "type": "SCALAR"
    },
    {
      "bufferView": 2,
      "byteOffset": 153216,
      "componentType": 5126,
      "count": 710,
      "max": [
        -0.3809778392314911,
        2.9865920543670654,
        1.6794066429138184
      ],
      "min": [
        -6.9899773597717285,
        -2.140122413635254,
        -1.670485496520996
      ],
      "type": "VEC3"
    },
    {
      "bufferView": 2,
      "byteOffset": 161736,
      "componentType": 5126,
      "count": 710,
      "max": [
        0.9998495578765869,
        0.9611624479293823,
        0.9996662139892578
      ],
      "min": [
        -0.9991226196289063,
        -0.9891278743743896,
        -0.9951989650726318
      ],
      "type": "VEC3"
    },
    {
      "bufferView": 1,
      "byteOffset": 39824,
      "componentType": 5126,
      "count": 710,
      "max": [
        1.0,
        0.9983013868331909
      ],
      "min": [
        0.0,
        0.0
      ],
      "type": "VEC2"
    },
    {
      "bufferView": 0,
      "byteOffset": 104112,
      "componentType": 5125,
      "count": 3072,
      "type": "SCALAR"
    },
    {
      "bufferView": 2,
      "byteOffset": 170256,
      "componentType": 5126,
      "count": 710,
      "max": [
        -0.30345815420150757,
        3.043886184692383,
        1.7583801746368408
      ],
      "min": [
        -7.067904472351074,
        -2.2182135581970215,
        -1.7488441467285156
      ],
      "type": "VEC3"
    },
    {
      "bufferView": 2,
      "byteOffset": 178776,
      "componentType": 5126,
      "count": 710,
      "max": [
        0.9990386366844177,
        0.988926112651825,
        0.9956223368644714
      ],
      "min": [
        -0.9998986721038818,
        -0.9664630889892578,
        -0.9996697902679443
      ],
      "type": "VEC3"
    },
    {
      "bufferView": 1,
      "byteOffset": 45504,
      "componentType": 5126,
      "count": 710,
      "max": [
        1.0,
        0.9983013868331909
      ],
      "min": [
        0.0,
        0.0
      ],
      "type": "VEC2"
    },
    {
      "bufferView": 0,
      "byteOffset": 116400,
      "componentType": 5125,
      "count": 3072,
      "type": "SCALAR"
    }
  ],
  "asset": {
    "extras": {
      "author": "BlackCube (https://sketchfab.com/blackcube4)",
      "license": "CC-BY-4.0 (http://creativecommons.org/licenses/by/4.0/)",
      "source": "https://sketchfab.com/3d-models/black-clover-nero-blender-0b27db1049dc4f6ea5b9739b4279bc0c",
      "title": "Black Clover Nero | Blender"
    },
    "generator": "Sketchfab-12.67.0",
    "version": "2.0"
  },
  "bufferViews": [
    {
      "buffer": 0,
      "byteLength": 128688,
      "name": "floatBufferViews",
      "target": 34963
    },
    {
      "buffer": 0,
      "byteLength": 51184,
      "byteOffset": 128688,
      "byteStride": 8,
      "name": "floatBufferViews",
      "target": 34962
    },
    {
      "buffer": 0,
      "byteLength": 187296,
      "byteOffset": 179872,
      "byteStride": 12,
      "name": "floatBufferViews",
      "target": 34962
    }
  ],
  "buffers": [
    {
      "byteLength": 367168,
      "uri": "scene.bin"
    }
  ],
  "extensionsUsed": [
    "KHR_materials_unlit"
  ],
  "images": [
    {
      "uri": "textures/Body_Material_baseColor.png"
    },
    {
      "uri": "textures/Wing_Material_baseColor.png"
    }
  ],
  "materials": [
    {
      "doubleSided": true,
      "extensions": {
        "KHR_materials_unlit": {}
      },
      "name": "Body_Material",
      "pbrMetallicRoughness": {
        "baseColorTexture": {
          "index": 0
        },
        "metallicFactor": 0.0
      }
    },
    {
      "extensions": {
        "KHR_materials_unlit": {}
      },
      "name": "Outline",
      "pbrMetallicRoughness": {
        "baseColorFactor": [
          0.0,
          0.0,
          0.0,
          1.0
        ],
        "metallicFactor": 0.0
      }
    },
    {
      "doubleSided": true,
      "extensions": {
        "KHR_materials_unlit": {}
      },
      "name": "Foot_Material",
      "pbrMetallicRoughness": {
        "baseColorFactor": [
          0.40990987343505997,
          0.26361108021129437,
          0.13833331344830166,
          1.0
        ],
        "metallicFactor": 0.0
      }
    },
    {
      "doubleSided": true,
      "extensions": {
        "KHR_materials_unlit": {}
      },
      "name": "Beak_Material",
      "pbrMetallicRoughness": {
        "baseColorFactor": [
          0.021522025683697404,
          0.021522025683697404,
          0.021522025683697404,
          1.0
        ],
        "metallicFactor": 0.0
      }
    },
    {
      "doubleSided": true,
      "extensions": {
        "KHR_materials_unlit": {}
      },
      "name": "Wing_Material",
      "pbrMetallicRoughness": {
        "baseColorTexture": {
          "index": 1
        },
        "metallicFactor": 0.0
      }
    }
  ],
  "meshes": [
    {
      "name": "Cube.004_Body Material_0",
      "primitives": [
        {
          "attributes": {
            "NORMAL": 1,
            "POSITION": 0,
            "TEXCOORD_0": 2
          },
          "indices": 3,
          "material": 0,
          "mode": 4
        }
      ]
    },
    {
      "name": "Cube.004_Outline_0",
      "primitives": [
        {
          "attributes": {
            "NORMAL": 5,
            "POSITION": 4
          },
          "indices": 6,
          "material": 1,
          "mode": 4
        }
      ]
    },
    {
      "name": "Cube.005_Body Material_0",
      "primitives": [
        {
          "attributes": {
            "NORMAL": 8,
            "POSITION": 7,
            "TEXCOORD_0": 9
          },
          "indices": 10,
          "material": 0,
          "mode": 4
        }
      ]
    },
    {
      "name": "Cube.005_Outline_0",
      "primitives": [
        {
          "attributes": {
            "NORMAL": 12,
            "POSITION": 11
          },
          "indices": 13,
          "material": 1,
          "mode": 4
        }
      ]
    },
    {
      "name": "Cube.006_Foot Material_0",
      "primitives": [
        {
          "attributes": {
            "NORMAL": 15,
            "POSITION": 14
          },
          "indices": 16,
          "material": 2,
          "mode": 4
        }
      ]
    },
    {
      "name": "Cube.006_Outline_0",
      "primitives": [
        {
          "attributes": {
            "NORMAL": 18,
            "POSITION": 17
          },
          "indices": 19,
          "material": 1,
          "mode": 4
        }
      ]
    },
    {
      "name": "RetopoFlow.003_Beak Material_0",
      "primitives": [
        {
          "attributes": {
            "NORMAL": 21,
            "POSITION": 20,
            "TEXCOORD_0": 22
          },
          "indices": 23,
          "material": 3,
          "mode": 4
        }
      ]
    },
    {
      "name": "RetopoFlow.003_Body Material_0",
      "primitives": [
        {
          "attributes": {
            "NORMAL": 25,
            "POSITION": 24,
            "TEXCOORD_0": 26
          },
          "indices": 27,
          "material": 0,
          "mode": 4
        }
      ]
    },
    {
      "name": "RetopoFlow.003_Outline_0",
      "primitives": [
        {
          "attributes": {
            "NORMAL": 29,
            "POSITION": 28,
            "TEXCOORD_0": 30
          },
          "indices": 31,
          "material": 1,
          "mode": 4
        }
      ]
    },
    {
      "name": "Cube.001_Wing Material_0",
      "primitives": [
        {
          "attributes": {
            "NORMAL": 33,
            "POSITION": 32,
            "TEXCOORD_0": 34
          },
          "indices": 35,
          "material": 4,
          "mode": 4
        }
      ]
    },
    {
      "name": "Cube.001_Outline_0",
      "primitives": [
        {
          "attributes": {
            "NORMAL": 37,
            "POSITION": 36,
            "TEXCOORD_0": 38
          },
          "indices": 39,
          "material": 1,
          "mode": 4
        }
      ]
    }
  ],
  "nodes": [
    {
      "children": [
        1
      ],
      "matrix": [
        1.0,
        0.0,
        0.0,
        0.0,
        0.0,
        2.220446049250313e-16,
        -1.0,
        0.0,
        0.0,
        1.0,
        2.220446049250313e-16,
        0.0,
        0.0,
        0.0,
        0.0,
        1.0
      ],
      "name": "Sketchfab_model"
    },
    {
      "children": [
        2
      ],
      "matrix": [
        0.009999999776482582,
        0.0,
        0.0,
        0.0,
        0.0,
        0.0,
        0.009999999776482582,
        0.0,
        0.0,
        -0.009999999776482582,
        0.0,
        0.0,
        0.0,
        0.0,
        0.0,
        1.0
      ],
      "name": "fc028f65d60c4ffea6bb85fe8de0bb97.fbx"
    },
    {
      "children": [
        3,
        6,
        8,
        11,
        14,
        17,
        21
      ],
      "name": "RootNode"
    },
    {
      "children": [
        4
      ],
      "matrix": [
        -29.08647719990347,
        -5.518906457566863,
        -95.51711910171437,
        0.0,
        56.63930913109449,
        79.46723428563203,
        -21.83912397841966,
        0.0,
        77.11008775993375,
        -60.45246356562044,
        -19.98834696773717,
        0.0,
        121.14537048339844,
        306.709716796875,
        142.9535675048828,
        1.0
      ],
      "name": "Light"
    },
    {
      "children": [
        5
      ],
      "matrix": [
        1.0,
        0.0,
        0.0,
        0.0,
        0.0,
        2.220446049250313e-16,
        1.0,
        0.0,
        0.0,
        -1.0,
        2.220446049250313e-16,
        0.0,
        0.0,
        0.0,
        0.0,
        1.0
      ],
      "name": "Object_4"
    },
    {
      "name": "Object_5"
    },
    {
      "children": [
        7
      ],
      "matrix": [
        -65.15581009765468,
        -44.527143038140764,
        -61.41704928909654,
        0.0,
        -32.40135466989878,
        89.5395708958271,
        -30.542085476036902,
        0.0,
        68.59207001076176,
        1.2755314797120858e-05,
        -72.76761921184276,
        0.0,
        735.88916015625,
        495.8309326171875,
        692.5791015625,
        1.0
      ],
      "name": "Camera"
    },
    {
      "name": "Object_7"
    },
    {
      "children": [
        9,
        10
      ],
      "matrix": [
        10.890490211293532,
        -1.883886776582124,
        -3.480820631614461e-07,
        0.0,
        -6.499121041734145e-07,
        -1.7149539631456542e-06,
        -11.052227973937836,
        0.0,
        1.8838867765820437,
        10.890490211293402,
        -1.8006369588812723e-06,
        0.0,
        9.155654907226563,
        235.36212158203125,
        -95.23743438720703,
        1.0
      ],
      "name": "Cube.004"
    },
    {
      "mesh": 0,
      "name": "Cube.004_Body Material_0"
    },
    {
      "mesh": 1,
      "name": "Cube.004_Outline_0"
    },
    {
      "children": [
        12,
        13
      ],
      "matrix": [
        8.636646270751953,
        0.0,
        0.0,
        0.0,
        -0.0,
        -1.4070882780978354e-06,
        -8.63664627075184,
        0.0,
        0.0,
        8.63664627075184,
        -1.4070882780978354e-06,
        0.0,
        -10.956335067749023,
        233.87294006347656,
        -95.23743438720703,
        1.0
      ],
      "name": "Cube.005"
    },
    {
      "mesh": 2,
      "name": "Cube.005_Body Material_0"
    },
    {
      "mesh": 3,
      "name": "Cube.005_Outline_0"
    },
    {
      "children": [
        15,
        16
      ],
      "matrix": [
        35.017852783203125,
        -1.0034013093140606e-15,
        -6.501432139714357e-17,
        0.0,
        6.501409041864964e-17,
        4.5189090536193754,
        -34.725047734758164,
        0.0,
        1.0034011047496342e-15,
        34.725047734758164,
        4.5189090536193754,
        0.0,
        -4.76837158203125e-05,
        15.48328685760498,
        -13.71937370300293,
        1.0
      ],
      "name": "Cube.006"
    },
    {
      "mesh": 4,
      "name": "Cube.006_Foot Material_0"
    },
    {
      "mesh": 5,
      "name": "Cube.006_Outline_0"
    },
    {
      "children": [
        18,
        19,
        20
      ],
      "matrix": [
        148.28759765625,
        0.0,
        0.0,
        0.0,
        -0.0,
        -2.4159116155538798e-05,
        -148.28759765624804,
        0.0,
        0.0,
        148.28759765624804,
        -2.4159116155538798e-05,
        0.0,
        -4.76837158203125e-05,
        167.46014404296875,
        -20.956707000732422,
        1.0
      ],
      "name": "RetopoFlow.003"
    },
    {
      "mesh": 6,
      "name": "RetopoFlow.003_Beak Material_0"
    },
    {
      "mesh": 7,
      "name": "RetopoFlow.003_Body Material_0"
    },
    {
      "mesh": 8,
      "name": "RetopoFlow.003_Outline_0"
    },
    {
      "children": [
        22,
        23
      ],
      "matrix": [
        33.611781651988665,
        5.422334763698741,
        0.2107828154527893,
        0.0,
        0.1682611046320487,
        0.28043936206225506,
        -34.045430107853385,
        0.0,
        -5.423821391232419,
        33.61127641357861,
        0.2500572532036407,
        0.0,
        123.71349334716797,
        72.69035339355469,
        -92.42931365966797,
        1.0
      ],
      "name": "Cube.001"
    },
    {
      "mesh": 9,
      "name": "Cube.001_Wing Material_0"
    },
    {
      "mesh": 10,
      "name": "Cube.001_Outline_0"
    }
  ],
  "samplers": [
    {
      "magFilter": 9729,
      "minFilter": 9729,
      "wrapS": 10497,
      "wrapT": 10497
    },
    {
      "magFilter": 9729,
      "minFilter": 9987,
      "wrapS": 10497,
      "wrapT": 10497
    }
  ],
  "scene": 0,
  "scenes": [
    {
      "name": "Sketchfab_Scene",
      "nodes": [
        0
      ]
    }
  ],
  "textures": [
    {
      "sampler": 0,
      "source": 0
    },
    {
      "sampler": 1,
      "source": 1
    }
  ]
}
